<svg width="57" height="57" viewBox="0 0 57 57" fill="none" xmlns="http://www.w3.org/2000/svg">
<g filter="url(#filter0_d)">
<circle cx="28.5" cy="24.5" r="23.5" stroke="#323232" stroke-width="2"/>
<path d="M35.9923 26.5968C35.6436 18.9394 28.8652 11.5239 28.5631 11.2015C28.5631 11.2015 28.5631 11.2015 28.5244 11.2015L28.4314 11.0967L28.3307 11.0322H27.8969L27.7497 11H27.7109L27.5715 11.0967L27.4863 11.1693C27.4863 11.1693 27.4863 11.1693 27.4475 11.1693C27.1454 11.5239 20.367 18.9475 20.0029 26.5968C19.999 26.6531 19.999 26.7097 20.0029 26.766C20.0029 27.0562 20.0029 27.3464 20.0029 27.6446C20.2973 35.9468 27.7497 37.978 27.8116 37.9941H28.0053C28.0697 38.002 28.1347 38.002 28.199 37.9941C28.2687 37.9941 35.7134 35.9065 36 27.6446C36 27.3464 36 27.0562 36 26.766C36 26.7096 35.9923 26.6532 35.9923 26.5968ZM22.048 23.7676C23.5954 25.1514 25.3449 26.2697 27.2306 27.0804V30.7478C25.3327 29.7725 22.4121 28.0396 21.5522 26.5162C21.622 25.586 21.7803 24.6653 22.0248 23.7676H22.048ZM23.5974 19.6568C24.6106 20.758 25.8538 21.6019 27.2306 22.1233V25.2991C25.4997 24.5389 23.9227 23.445 22.5826 22.0749C22.8773 21.2498 23.2161 20.4425 23.5974 19.6568ZM33.4436 22.0749C32.1041 23.4457 30.5268 24.5398 28.7955 25.2991V22.1233C30.1612 21.5976 31.3934 20.7539 32.3977 19.6568C32.7885 20.4313 33.1377 21.2278 33.4436 22.0427V22.0749ZM28.7955 20.4145V13.9662C29.8308 15.2873 30.7757 16.6825 31.6231 18.1415C30.8759 19.1299 29.8968 19.9015 28.78 20.3822L28.7955 20.4145ZM28.7955 30.764V27.0804C30.6884 26.2769 32.4458 25.164 34.0013 23.7837C34.2386 24.6848 34.3891 25.6082 34.4506 26.5403C33.5985 28.0396 30.678 29.7645 28.78 30.7317L28.7955 30.764ZM27.2461 20.4145C26.1242 19.9276 25.1441 19.1441 24.4031 18.1415C25.2489 16.6687 26.1938 15.26 27.2306 13.9259L27.2461 20.4145ZM21.7149 29.0632C23.4092 30.4484 25.2619 31.6099 27.2306 32.5211V36.0677C25.8222 35.4723 24.5796 34.5193 23.6161 33.2958C22.6526 32.0722 21.999 30.6171 21.7149 29.0632ZM28.78 36.0757V32.5131C30.7504 31.6084 32.6035 30.4493 34.2957 29.0632C34.0237 30.623 33.3747 32.0851 32.4097 33.3119C31.4448 34.5387 30.1957 35.4898 28.78 36.0757Z" fill="#323232"/>
</g>
<defs>
<filter id="filter0_d" x="0" y="0" width="57" height="57" filterUnits="userSpaceOnUse" color-interpolation-filters="sRGB">
<feFlood flood-opacity="0" result="BackgroundImageFix"/>
<feColorMatrix in="SourceAlpha" type="matrix" values="0 0 0 0 0 0 0 0 0 0 0 0 0 0 0 0 0 0 127 0"/>
<feOffset dy="4"/>
<feGaussianBlur stdDeviation="2"/>
<feColorMatrix type="matrix" values="0 0 0 0 0 0 0 0 0 0 0 0 0 0 0 0 0 0 0.25 0"/>
<feBlend mode="normal" in2="BackgroundImageFix" result="effect1_dropShadow"/>
<feBlend mode="normal" in="SourceGraphic" in2="effect1_dropShadow" result="shape"/>
</filter>
</defs>
</svg>
