<svg width="160" height="160" viewBox="0 0 160 160" fill="none" xmlns="http://www.w3.org/2000/svg">
<g filter="url(#filter0_dd)">
<rect x="4" width="152" height="152" fill="#E84D37"/>
<path d="M80.1221 24.7094C84.2523 24.7084 88.3104 25.7697 91.8896 27.7869C95.4688 29.8041 98.4435 32.7065 100.516 36.2032C102.588 39.6999 103.685 43.6681 103.696 47.7103C103.708 51.7525 102.634 55.7268 100.582 59.2348C102.005 59.4337 103.344 60.0167 104.448 60.9183C105.552 61.8199 106.377 63.0046 106.832 64.3396C107.287 65.6746 107.353 67.1071 107.022 68.4767C106.692 69.8462 105.979 71.0987 104.962 72.0937C103.945 73.0888 102.665 73.7871 101.266 74.1104C99.8667 74.4337 98.4029 74.3692 97.0389 73.9241C95.6748 73.4791 94.4643 72.6711 93.5431 71.5907C92.6218 70.5103 92.0262 69.2001 91.8229 67.807C91.5312 67.9702 91.2312 68.1251 90.9312 68.2801C90.5143 70.7917 89.1979 73.0763 87.2176 74.725C85.2372 76.3737 82.722 77.279 80.1221 77.279C77.5221 77.279 75.0069 76.3737 73.0266 74.725C71.0462 73.0763 69.7298 70.7917 69.313 68.2801C69.0129 68.1251 68.7129 67.9702 68.4212 67.807C68.2185 69.2014 67.6226 70.5129 66.7005 71.5942C65.7785 72.6756 64.5667 73.484 63.2012 73.9288C61.8358 74.3736 60.3707 74.4371 58.9704 74.1122C57.5701 73.7873 56.29 73.0869 55.2739 72.0896C54.2577 71.0923 53.5457 69.8375 53.2178 68.4661C52.8898 67.0948 52.9589 65.6611 53.4173 64.326C53.8756 62.9909 54.7051 61.8073 55.8127 60.908C56.9202 60.0087 58.262 59.4293 59.6873 59.2348C57.6363 55.7286 56.5624 51.7566 56.5729 47.7164C56.5834 43.6763 57.6781 39.7098 59.7473 36.2138C61.8165 32.7178 64.7876 29.815 68.3633 27.7961C71.9391 25.7771 75.9939 24.7127 80.1221 24.7094ZM80.1221 19C75.4944 18.9972 70.9314 20.0638 66.8045 22.113C62.6776 24.1622 59.1034 27.136 56.3728 30.7925C53.6421 34.449 51.8322 38.6849 51.0903 43.1553C50.3485 47.6257 50.6956 52.2044 52.1034 56.5188C49.3751 58.6476 47.591 61.7245 47.1226 65.1085C46.6543 68.4926 47.5379 71.923 49.5893 74.6855C51.6408 77.4479 54.702 79.3294 58.1354 79.9382C61.5689 80.5469 65.1099 79.836 68.0212 77.9534C69.5932 79.5499 71.478 80.8199 73.5629 81.6873C75.6478 82.5547 77.8899 83.0017 80.1554 83.0017C82.4209 83.0017 84.6631 82.5547 86.748 81.6873C88.8328 80.8199 90.7176 79.5499 92.2896 77.9534C95.202 79.7271 98.6933 80.3538 102.059 79.7071C105.425 79.0604 108.415 77.1885 110.427 74.469C112.438 71.7494 113.32 68.3846 112.896 65.0533C112.472 61.722 110.772 58.6721 108.141 56.5188C109.549 52.2044 109.896 47.6257 109.154 43.1553C108.412 38.6849 106.602 34.449 103.871 30.7925C101.141 27.136 97.5665 24.1622 93.4396 22.113C89.3127 20.0638 84.7497 18.9972 80.1221 19Z" fill="white"/>
<path d="M99.4818 83.2795C97.187 83.2745 94.9177 82.8081 92.8146 81.9092C92.5063 82.1539 92.1813 82.3741 91.8562 82.6025L92.2979 83.0266L89.0477 86.2076L87.6559 84.8455C87.0809 85.0657 86.4975 85.2614 85.8975 85.4327L87.8643 87.3576L84.6224 90.5385L81.3555 87.3576L82.6472 86.0934C81.818 86.1969 80.9831 86.2514 80.1471 86.2565C79.3362 86.2547 78.5262 86.2029 77.7219 86.1015L79.0053 87.3576L75.7551 90.5385L72.5049 87.3576L74.455 85.449C73.8617 85.2827 73.2776 85.0867 72.7049 84.8618L71.3048 86.2076L68.0212 83.0266L68.4296 82.627C68.0879 82.3904 67.7545 82.162 67.4295 81.9092C65.3265 82.8081 63.0572 83.2745 60.7624 83.2795C60.5957 83.2795 60.429 83.2795 60.2623 83.2795C60.1991 83.724 60.2448 84.1769 60.3957 84.6008L77.3802 131.189C77.3988 131.245 77.4211 131.3 77.4469 131.352C77.4696 131.409 77.4975 131.464 77.5302 131.516C77.5886 131.63 77.6552 131.736 77.7219 131.842L77.7969 131.948C77.8995 132.082 78.0138 132.208 78.1386 132.323L78.2219 132.388L78.547 132.633L78.697 132.715C78.8123 132.777 78.9321 132.832 79.0553 132.878H79.147L79.4804 132.959H79.6137C79.9224 133.014 80.2384 133.014 80.5471 132.959H80.6888L81.0138 132.878H81.1555C81.2753 132.83 81.3922 132.775 81.5055 132.715L81.6555 132.625C81.7725 132.558 81.8815 132.479 81.9805 132.388L82.0722 132.323C82.1948 132.206 82.3089 132.08 82.4139 131.948L82.4806 131.842C82.5551 131.738 82.622 131.629 82.6806 131.516L82.8306 131.189L99.8485 84.5763C100.003 84.1533 100.049 83.6995 99.9818 83.255C99.8151 83.255 99.6901 83.2795 99.4818 83.2795ZM87.8143 96.0277L84.5641 99.2086L81.3555 96.0277L84.5974 92.8467L87.8143 96.0277ZM76.9052 100.359L80.1554 97.1777L83.4056 100.359L80.1554 103.54L76.9052 100.359ZM83.4056 109.029L80.1554 112.21L76.9052 109.029L80.1554 105.848L83.4056 109.029ZM80.1554 88.5158L83.4056 91.6967L80.1554 94.8532L76.9052 91.6722L80.1554 88.5158ZM78.9803 96.0277L75.7301 99.2086L72.4799 96.0277L75.7301 92.8467L78.9803 96.0277ZM66.5544 84.4947L66.8711 84.1848L70.1214 87.3576L68.2629 89.1438L66.5544 84.4947ZM68.8546 90.8811L71.2714 88.5158L74.5133 91.6967L71.3048 94.8532L69.813 93.3932L68.8546 90.8811ZM71.2131 97.3001L71.3048 97.2103L74.5467 100.391L72.9216 102.023L71.2131 97.3001ZM74.6883 106.884L73.5049 103.621L75.6968 101.484L78.947 104.665L75.7301 107.903L74.6883 106.884ZM77.5469 114.73L75.9884 110.472L78.947 113.36L77.5469 114.73ZM80.0887 121.712L78.1636 116.426L80.1221 114.51L82.0305 116.378L80.0887 121.712ZM82.6556 114.681L81.3555 113.36L84.1974 110.57L82.6556 114.681ZM85.5225 106.99L84.5807 107.903L81.3555 104.69L84.5974 101.517L86.7392 103.605L85.5225 106.99ZM87.3726 101.908L85.7975 100.359L89.0477 97.1777V97.2185L87.3726 101.908ZM90.4311 93.5156L89.0144 94.8532L85.7641 91.6722L89.0144 88.4913L91.3562 90.8321L90.4311 93.5156ZM91.9979 89.1438L90.1894 87.3657L93.4397 84.1848L93.7064 84.4458L91.9979 89.1438Z" fill="white"/>
</g>
<defs>
<filter id="filter0_dd" x="0" y="0" width="160" height="160" filterUnits="userSpaceOnUse" color-interpolation-filters="sRGB">
<feFlood flood-opacity="0" result="BackgroundImageFix"/>
<feColorMatrix in="SourceAlpha" type="matrix" values="0 0 0 0 0 0 0 0 0 0 0 0 0 0 0 0 0 0 127 0"/>
<feOffset dy="4"/>
<feGaussianBlur stdDeviation="2"/>
<feColorMatrix type="matrix" values="0 0 0 0 0 0 0 0 0 0 0 0 0 0 0 0 0 0 0.25 0"/>
<feBlend mode="normal" in2="BackgroundImageFix" result="effect1_dropShadow"/>
<feColorMatrix in="SourceAlpha" type="matrix" values="0 0 0 0 0 0 0 0 0 0 0 0 0 0 0 0 0 0 127 0"/>
<feOffset dy="4"/>
<feGaussianBlur stdDeviation="2"/>
<feColorMatrix type="matrix" values="0 0 0 0 0 0 0 0 0 0 0 0 0 0 0 0 0 0 0.25 0"/>
<feBlend mode="normal" in2="effect1_dropShadow" result="effect2_dropShadow"/>
<feBlend mode="normal" in="SourceGraphic" in2="effect2_dropShadow" result="shape"/>
</filter>
</defs>
</svg>
